<svg width="180" height="180" viewBox="0 0 180 180" fill="none" xmlns="http://www.w3.org/2000/svg">
<rect width="180" height="180" rx="31" fill="white"/>
<path d="M22.086 127.5V51.9H53.46C59.22 51.9 64.242 52.818 68.526 54.654C72.846 56.49 76.176 59.154 78.516 62.646C80.892 66.102 82.08 70.296 82.08 75.228C82.08 78.9 81.396 82.14 80.028 84.948C78.696 87.72 76.878 90.06 74.574 91.968C72.27 93.876 69.696 95.316 66.852 96.288L86.346 127.5H62.856L47.358 100.554H41.958V127.5H22.086ZM41.958 84.84H51.246C54.594 84.84 57.222 84.21 59.13 82.95C61.074 81.654 62.046 79.512 62.046 76.524C62.046 73.5 61.11 71.34 59.238 70.044C57.402 68.748 54.828 68.1 51.516 68.1H41.958V84.84Z" fill="#66ACE2"/>
<path d="M133.258 133.71C124.974 133.71 117.64 132.038 111.256 128.694C104.91 125.35 99.9315 120.6 96.3215 114.444C92.7495 108.25 90.9635 100.916 90.9635 92.442C90.9635 86.248 92.0085 80.586 94.0985 75.456C96.1885 70.326 99.1335 65.899 102.934 62.175C106.772 58.451 111.294 55.582 116.5 53.568C121.706 51.516 127.406 50.49 133.6 50.49C140.668 50.49 146.482 51.383 151.042 53.169C155.602 54.955 159.82 57.482 163.696 60.75L152.41 79.674C150.358 77.432 147.85 75.76 144.886 74.658C141.96 73.518 138.692 72.948 135.082 72.948C131.852 72.948 129.002 73.404 126.532 74.316C124.062 75.19 121.972 76.463 120.262 78.135C118.59 79.807 117.317 81.821 116.443 84.177C115.569 86.533 115.132 89.174 115.132 92.1C115.132 96.09 115.93 99.51 117.526 102.36C119.122 105.21 121.421 107.414 124.423 108.972C127.425 110.492 131.054 111.252 135.31 111.252C138.578 111.252 141.884 110.739 145.228 109.713C148.61 108.687 151.84 107.072 154.918 104.868L165.406 124.134C161.834 126.87 157.407 129.15 152.125 130.974C146.843 132.798 140.554 133.71 133.258 133.71Z" fill="#3785C4"/>
<path d="M109.5 138L102.91 131.41C92.7229 121.223 87 107.407 87 93C87 78.5933 92.723 64.7771 102.91 54.5903L109.5 48L117.455 55.9549L110.865 62.5451C102.788 70.6221 98.25 81.5773 98.25 93C98.25 104.423 102.788 115.378 110.865 123.455L117.455 130.045L109.5 138Z" fill="#66ACE2"/>
<path d="M128.865 113.225L120.91 121.18L114.32 114.59C108.352 108.623 105 100.529 105 92.0902C105 83.6511 108.352 75.5578 114.32 69.5902L120.91 63L128.865 70.9548L122.275 77.5451C118.417 81.4028 116.25 86.6348 116.25 92.0902C116.25 97.5457 118.417 102.778 122.275 106.635L128.865 113.225Z" fill="#66ACE2"/>
<path d="M147.75 92.7869L134.57 105.967L127.98 99.3771C126.232 97.6293 125.25 95.2587 125.25 92.7869C125.25 90.3152 126.232 87.9447 127.98 86.1969L134.57 79.607L147.75 92.7869Z" fill="#66ACE2"/>
</svg>
