<svg width="51" height="50" viewBox="0 0 51 50" fill="none" xmlns="http://www.w3.org/2000/svg">
<path d="M2.862 37.5V12.3H13.32C15.24 12.3 16.914 12.606 18.342 13.218C19.782 13.83 20.892 14.718 21.672 15.882C22.464 17.034 22.86 18.432 22.86 20.076C22.86 21.3 22.632 22.38 22.176 23.316C21.732 24.24 21.126 25.02 20.358 25.656C19.59 26.292 18.732 26.772 17.784 27.096L24.282 37.5H16.452L11.286 28.518H9.486V37.5H2.862ZM9.486 23.28H12.582C13.698 23.28 14.574 23.07 15.21 22.65C15.858 22.218 16.182 21.504 16.182 20.508C16.182 19.5 15.87 18.78 15.246 18.348C14.634 17.916 13.776 17.7 12.672 17.7H9.486V23.28Z" fill="#66ACE2"/>
<path d="M40.0858 39.57C37.3245 39.57 34.8798 39.0127 32.7518 37.898C30.6365 36.7833 28.9772 35.2 27.7738 33.148C26.5832 31.0833 25.9878 28.6387 25.9878 25.814C25.9878 23.7493 26.3362 21.862 27.0328 20.152C27.7295 18.442 28.7112 16.9663 29.9778 15.725C31.2572 14.4837 32.7645 13.5273 34.4998 12.856C36.2352 12.172 38.1352 11.83 40.1998 11.83C42.5558 11.83 44.4938 12.1277 46.0138 12.723C47.5338 13.3183 48.9398 14.1607 50.2318 15.25L46.4698 21.558C45.7858 20.8107 44.9498 20.2533 43.9618 19.886C42.9865 19.506 41.8972 19.316 40.6938 19.316C39.6172 19.316 38.6672 19.468 37.8438 19.772C37.0205 20.0633 36.3238 20.4877 35.7538 21.045C35.1965 21.6023 34.7722 22.2737 34.4808 23.059C34.1895 23.8443 34.0438 24.7247 34.0438 25.7C34.0438 27.03 34.3098 28.17 34.8418 29.12C35.3738 30.07 36.1402 30.8047 37.1408 31.324C38.1415 31.8307 39.3512 32.084 40.7698 32.084C41.8592 32.084 42.9612 31.913 44.0758 31.571C45.2032 31.229 46.2798 30.6907 47.3058 29.956L50.8018 36.378C49.6112 37.29 48.1355 38.05 46.3748 38.658C44.6142 39.266 42.5178 39.57 40.0858 39.57Z" fill="#3785C4"/>
<path d="M32 41L29.8033 38.8033C26.4076 35.4076 24.5 30.8022 24.5 26C24.5 21.1978 26.4077 16.5924 29.8033 13.1968L32 11L34.6516 13.6516L32.4549 15.8484C29.7626 18.5407 28.25 22.1924 28.25 26C28.25 29.8076 29.7626 33.4593 32.4549 36.1516L34.6516 38.3484L32 41Z" fill="#66ACE2"/>
<path d="M38.4549 32.7419L35.8033 35.3936L33.6066 33.1969C31.6175 31.2077 30.5 28.5099 30.5 25.6969C30.5 22.8838 31.6175 20.186 33.6066 18.1969L35.8033 16.0001L38.4549 18.6517L36.2583 20.8485C34.9724 22.1344 34.25 23.8784 34.25 25.6969C34.25 27.5153 34.9724 29.2594 36.2583 30.5452L38.4549 32.7419Z" fill="#66ACE2"/>
<path d="M44.75 25.9289L40.3567 30.3223L38.1599 28.1256C37.5774 27.543 37.25 26.7528 37.25 25.9289C37.25 25.1049 37.5774 24.3148 38.1599 23.7322L40.3567 21.5355L44.75 25.9289Z" fill="#66ACE2"/>
</svg>
