<svg width="731.655396" height="800.000000" viewBox="0 0 731.655 800" fill="none" xmlns="http://www.w3.org/2000/svg" xmlns:xlink="http://www.w3.org/1999/xlink">
	<desc>
			Created with Pixso.
	</desc>
	<defs/>
	<path id="Vector" d="M730.7 315.31C723.53 138.42 579.45 0 402.24 0C225.23 0 80.43 140.59 73.67 315.99C50.99 360.4 10.09 443.76 8.22 447.58C-2.38 468.73 -2.78 493.63 7.3 515.51C17.34 537.33 36.48 553.21 59.81 559.05L74.79 562.81C82.05 595.6 92.98 645.03 96.4 660.74C109.29 720.07 140.46 745.39 200.61 745.39C208.94 745.39 217.42 744.89 225.68 744.08L225.68 749.22L225.68 800L276.46 800L574.34 800L625.12 800L625.12 749.22L625.12 644.97C625.12 611 635.61 578.06 653.16 556.86C725.45 469.62 735.29 377.53 730.7 315.31ZM614.06 524.46C584.73 559.87 574.34 607.22 574.34 644.97L574.34 749.22L276.46 749.22L276.46 683.35C276.46 683.35 235.37 694.61 200.61 694.61C165.87 694.61 154 686.65 146.01 649.93C140.73 625.68 117.59 521.17 117.59 521.17L72.15 509.8C63.88 507.73 56.99 502.03 53.42 494.26C49.85 486.52 49.98 477.57 53.8 469.94C53.8 469.94 103.49 368.65 124.21 328.76C124.23 175.23 248.7 50.77 402.24 50.77C413.85 50.77 425.2 51.73 436.42 53.09L436.42 271.68C388.62 286.55 353.91 331.14 353.91 383.83C353.91 429.75 380.32 469.4 418.72 488.71C410.7 511.63 396.29 535.57 372.59 553.96C353.88 568.43 329.2 579.88 295.92 584.59C289.1 575.18 278.11 569.01 265.6 569.01L214.77 569.01C194.04 569.01 177.24 585.81 177.24 606.56C177.24 627.28 194.04 644.08 214.77 644.08L265.6 644.08C280.7 644.08 293.63 635.11 299.58 622.27C322.23 619.18 342.54 613.6 360.1 605.62C400.38 587.35 427.01 557.98 442.98 528.04C447.99 518.64 451.91 509.24 455.08 500.01C460.4 500.74 465.8 501.26 471.33 501.26C536.18 501.26 588.76 448.68 588.76 383.83C588.76 328.85 550.91 282.82 499.9 270.05L499.9 68.71C602.04 107.12 675.69 203.67 679.99 318.21C684.52 377.12 673.05 453.28 614.06 524.46Z" fill="#C9C9C9" fill-opacity="0.350000" fill-rule="nonzero"/>
</svg>
