<svg width="628" height="465" viewBox="0 0 628 465" fill="none" xmlns="http://www.w3.org/2000/svg">
<path d="M601.39 50.8587C593.315 50.8587 586.779 56.7114 586.779 63.9451V402.23C586.751 415.596 574.666 426.395 559.77 426.421H68.231C53.3056 426.395 41.2492 415.596 41.222 402.23V44.6731L85.4945 61.0954C89.0477 62.412 93.1141 62.412 96.6815 61.0954L155.58 39.2536L214.465 61.0954C218.018 62.412 222.098 62.412 225.651 61.0954L284.522 39.2536L343.393 61.0954C346.946 62.412 351.013 62.412 354.566 61.0954L413.507 39.2536L472.505 61.0954C476.058 62.412 480.109 62.412 483.663 61.0954L528.052 44.6604V380.736C528.052 387.968 534.585 393.822 542.662 393.822C550.737 393.822 557.273 387.968 557.273 380.736V25.0935C557.273 20.7233 554.847 16.6467 550.78 14.2175C546.729 11.7767 541.591 11.3181 537.082 13.0045L478.085 34.8315L419.087 13.0045C415.533 11.6753 411.481 11.6753 407.928 13.0045L348.986 34.8315L290.115 13.0045C286.563 11.6753 282.482 11.6753 278.929 13.0045L220.058 34.8315L161.173 13.0045C157.621 11.6753 153.553 11.6753 149.987 13.0045L91.0886 34.8315L32.2033 13.0045C27.6804 11.3287 22.5582 11.7767 18.4918 14.2059C14.4254 16.6467 12 20.7233 12 25.0935V402.23C12 430.064 37.1828 452.582 68.231 452.596H559.77C590.817 452.583 615.986 430.064 616.001 402.23V63.9451C616 56.7114 609.465 50.8587 601.39 50.8587Z" fill="#C9C9C9" fill-opacity="0.35"/>
<path d="M47.222 402.223V53.2982L83.4078 66.7208L83.4099 66.7216C88.3108 68.5375 93.8535 68.5347 98.7589 66.7243L98.7677 66.721L155.58 45.6529L212.378 66.7209L212.38 66.7216C217.279 68.5366 222.837 68.5366 227.736 66.7216L227.738 66.7207L284.522 45.6532L341.306 66.7207L341.308 66.7216C346.207 68.5366 351.752 68.5366 356.651 66.7216L354.566 61.0954L356.651 66.7215L413.508 45.6519L470.42 66.7216C475.318 68.5364 480.848 68.5366 485.746 66.7221C485.746 66.7219 485.747 66.7218 485.747 66.7216L522.052 53.2799V380.736C522.052 391.886 531.909 399.822 542.662 399.822C553.412 399.822 563.273 391.886 563.273 380.736V25.0935C563.273 18.4203 559.567 12.4814 553.866 9.0721C548.225 5.6774 541.181 5.07051 534.995 7.37951C534.99 7.38125 534.985 7.38299 534.981 7.38473L478.085 28.4341L421.189 7.38487C421.185 7.38346 421.181 7.38206 421.178 7.38066C416.275 5.54988 410.739 5.54987 405.837 7.38061C405.833 7.38203 405.829 7.38345 405.826 7.38487L348.987 28.4329L292.218 7.3851C292.214 7.38372 292.21 7.38234 292.207 7.38096C287.304 5.54952 281.739 5.54993 276.837 7.38122C276.833 7.38243 276.83 7.38365 276.827 7.38487L220.058 28.4325L163.276 7.3851C163.273 7.38395 163.269 7.38281 163.266 7.38166C158.36 5.54808 152.808 5.55145 147.897 7.38029C147.895 7.38098 147.893 7.38167 147.891 7.38236L91.0888 28.4327L34.2887 7.37856L34.288 7.37829C28.0986 5.08503 21.0749 5.67371 15.4147 9.05503L15.4147 9.05501L15.4039 9.06151C9.71011 12.4792 6 18.4151 6 25.0935V402.23C6 433.986 34.5117 458.581 68.2283 458.596H68.231H559.77H559.773C593.492 458.582 621.984 433.984 622.001 402.233V402.23V63.9451V63.9442C621.999 52.7929 612.14 44.8587 601.39 44.8587C590.64 44.8587 580.779 52.7929 580.779 63.9451V402.217C580.759 411.674 571.991 420.4 559.76 420.421H68.2416C55.9873 420.4 47.2444 411.681 47.222 402.223Z" stroke="#C9C9C9" stroke-opacity="0.35" stroke-width="12"/>
<path d="M265.872 135.666H107.781V271.683H265.872V135.666Z" fill="#C9C9C9" fill-opacity="0.35"/>
<path d="M459.464 137.161H324.359V158.094H459.464V137.161Z" fill="#C9C9C9" fill-opacity="0.35"/>
<path d="M459.464 197.918H324.359V218.852H459.464V197.918Z" fill="#C9C9C9" fill-opacity="0.35"/>
<path d="M459.464 258.698H324.359V279.632H459.464V258.698Z" fill="#C9C9C9" fill-opacity="0.35"/>
<path d="M459.464 319.455H107.781V340.388H459.464V319.455Z" fill="#C9C9C9" fill-opacity="0.35"/>
</svg>
