<svg width="656" height="656" viewBox="0 0 656 656" fill="none" xmlns="http://www.w3.org/2000/svg">
<path d="M245.269 129.172C236.222 145.005 236.563 166.528 255.028 175.761C277.908 187.201 291.216 166.96 302.127 150.368C311.52 136.087 322.075 122.64 334.175 110.539C360.743 83.971 398.335 59.6364 447.273 59.6364C496.21 59.6364 533.802 83.971 560.37 110.539C572.411 122.581 582.931 135.956 592.284 150.162C603.189 166.722 616.667 187.186 639.517 175.761C657.891 166.574 658.281 144.929 649.276 129.172C647.111 125.385 643.959 120.137 639.812 113.914C631.546 101.52 619.154 84.9848 602.539 68.3698C569.471 35.3017 517.608 0 447.273 0C376.938 0 325.075 35.3017 292.006 68.3698C275.392 84.9848 262.998 101.52 254.735 113.914C250.587 120.137 247.434 125.385 245.269 129.172Z" fill="#C9C9C9" fill-opacity="0.35"/>
<path d="M401.836 170.349C395.89 176.199 391.283 182.132 388.179 186.599C377.784 201.568 363.68 215.829 343.786 205.219C327.302 196.428 324.789 175.847 333.755 160.96C335.031 158.841 336.847 155.965 339.197 152.583C343.86 145.868 350.808 136.892 360.019 127.833C378.121 110.025 407.582 89.4546 447.27 89.4546C486.958 89.4546 516.418 110.025 534.524 127.832C543.735 136.891 550.682 145.867 555.346 152.582C557.692 155.964 559.508 158.841 560.788 160.959C569.772 175.877 567.178 196.459 550.757 205.219C530.859 215.833 516.761 201.571 506.363 186.6C503.259 182.133 498.652 176.2 492.704 170.349C480.493 158.339 465.226 149.091 447.27 149.091C429.313 149.091 414.046 158.338 401.836 170.349Z" fill="#C9C9C9" fill-opacity="0.35"/>
<path d="M119.273 506.909C102.805 506.909 89.4546 520.259 89.4546 536.727C89.4546 553.196 102.805 566.545 119.273 566.545C135.741 566.545 149.091 553.196 149.091 536.727C149.091 520.259 135.741 506.909 119.273 506.909Z" fill="#C9C9C9" fill-opacity="0.35"/>
<path d="M178.909 536.727C178.909 520.259 192.259 506.909 208.727 506.909C225.196 506.909 238.545 520.259 238.545 536.727C238.545 553.196 225.196 566.545 208.727 566.545C192.259 566.545 178.909 553.196 178.909 536.727Z" fill="#C9C9C9" fill-opacity="0.35"/>
<path d="M268.364 536.727C268.364 520.259 281.713 506.909 298.182 506.909C314.65 506.909 328 520.259 328 536.727C328 553.196 314.65 566.545 298.182 566.545C281.713 566.545 268.364 553.196 268.364 536.727Z" fill="#C9C9C9" fill-opacity="0.35"/>
<path fill-rule="evenodd" clip-rule="evenodd" d="M417.455 208.727C417.455 192.259 430.804 178.909 447.273 178.909C463.741 178.909 477.091 192.259 477.091 208.727V417.455H566.545C615.951 417.455 656 457.503 656 506.909V566.545C656 615.951 615.951 656 566.545 656H89.4546C40.0503 656 0 615.951 0 566.545V506.909C0 457.503 40.0503 417.455 89.4546 417.455H417.455V208.727ZM566.545 477.091C583.014 477.091 596.364 490.44 596.364 506.909V566.545C596.364 583.014 583.014 596.364 566.545 596.364H89.4546C72.9866 596.364 59.6364 583.014 59.6364 566.545V506.909C59.6364 490.44 72.9866 477.091 89.4546 477.091H566.545Z" fill="#C9C9C9" fill-opacity="0.35"/>
</svg>
