<svg width="100" height="100" viewBox="0 0 100 100" fill="none" xmlns="http://www.w3.org/2000/svg">
<path d="M8.067 45V26.8H15.62C17.0067 26.8 18.2157 27.021 19.247 27.463C20.287 27.905 21.0887 28.5463 21.652 29.387C22.224 30.219 22.51 31.2287 22.51 32.416C22.51 33.3 22.3453 34.08 22.016 34.756C21.6953 35.4233 21.2577 35.9867 20.703 36.446C20.1483 36.9053 19.5287 37.252 18.844 37.486L23.537 45H17.882L14.151 38.513H12.851V45H8.067ZM12.851 34.73H15.087C15.893 34.73 16.5257 34.5783 16.985 34.275C17.453 33.963 17.687 33.4473 17.687 32.728C17.687 32 17.4617 31.48 17.011 31.168C16.569 30.856 15.9493 30.7 15.152 30.7H12.851V34.73ZM24.1827 45L30.9037 26.8H36.5197L43.2537 45H37.8587L36.7147 41.529H30.5657L29.4347 45H24.1827ZM31.6187 37.551H35.6357L33.6337 31.805L31.6187 37.551ZM45.4469 45V26.8H51.8689C53.7842 26.8 55.4612 27.1857 56.8999 27.957C58.3472 28.7197 59.4695 29.7857 60.2669 31.155C61.0729 32.5243 61.4759 34.106 61.4759 35.9C61.4759 37.252 61.2462 38.487 60.7869 39.605C60.3275 40.723 59.6732 41.685 58.8239 42.491C57.9832 43.2883 56.9735 43.908 55.7949 44.35C54.6162 44.7833 53.3075 45 51.8689 45H45.4469ZM50.2309 40.541H51.6869C52.3975 40.541 53.0432 40.4457 53.6239 40.255C54.2045 40.0643 54.7072 39.774 55.1319 39.384C55.5565 38.9853 55.8815 38.5 56.1069 37.928C56.3409 37.3473 56.4579 36.6713 56.4579 35.9C56.4579 34.8773 56.2542 34.0193 55.8469 33.326C55.4482 32.6327 54.8892 32.1127 54.1699 31.766C53.4592 31.4193 52.6315 31.246 51.6869 31.246H50.2309V40.541ZM64.5938 45V26.8H69.3778V45H64.5938ZM82.242 45.39C80.8293 45.39 79.5293 45.1517 78.342 44.675C77.1546 44.1897 76.1233 43.518 75.248 42.66C74.3726 41.802 73.6923 40.7967 73.207 39.644C72.7303 38.4913 72.492 37.2433 72.492 35.9C72.492 34.548 72.7303 33.2957 73.207 32.143C73.6923 30.9903 74.3726 29.985 75.248 29.127C76.1233 28.269 77.1546 27.6017 78.342 27.125C79.5293 26.6483 80.8293 26.41 82.242 26.41C83.6546 26.41 84.9503 26.6527 86.129 27.138C87.3163 27.6233 88.3476 28.2993 89.223 29.166C90.107 30.0327 90.7916 31.0423 91.277 32.195C91.7623 33.339 92.005 34.574 92.005 35.9C92.005 37.2433 91.7623 38.4913 91.277 39.644C90.7916 40.7967 90.107 41.802 89.223 42.66C88.3476 43.518 87.3163 44.1897 86.129 44.675C84.9503 45.1517 83.6546 45.39 82.242 45.39ZM82.242 40.905C82.9353 40.905 83.568 40.788 84.14 40.554C84.7206 40.32 85.2233 39.9863 85.648 39.553C86.0726 39.111 86.402 38.5823 86.636 37.967C86.87 37.3517 86.987 36.6627 86.987 35.9C86.987 34.8773 86.7833 33.9933 86.376 33.248C85.9686 32.494 85.4053 31.9133 84.686 31.506C83.9753 31.0987 83.1606 30.895 82.242 30.895C81.5573 30.895 80.9246 31.012 80.344 31.246C79.7633 31.48 79.2606 31.8137 78.836 32.247C78.4113 32.6803 78.082 33.209 77.848 33.833C77.6226 34.4483 77.51 35.1373 77.51 35.9C77.51 36.9227 77.7136 37.811 78.121 38.565C78.5283 39.3103 79.0873 39.8867 79.798 40.294C80.5086 40.7013 81.3233 40.905 82.242 40.905Z" fill="#66ACE2"/>
<path d="M21.1949 74.525C18.6516 74.525 16.3999 74.0117 14.4399 72.985C12.4916 71.9583 10.9632 70.5 9.8549 68.61C8.75824 66.7083 8.2099 64.4567 8.2099 61.855C8.2099 59.9533 8.53074 58.215 9.1724 56.64C9.81407 55.065 10.7182 53.7058 11.8849 52.5625C13.0632 51.4192 14.4516 50.5383 16.0499 49.92C17.6482 49.29 19.3982 48.975 21.2999 48.975C23.4699 48.975 25.2549 49.2492 26.6549 49.7975C28.0549 50.3458 29.3499 51.1217 30.5399 52.125L27.0749 57.935C26.4449 57.2467 25.6749 56.7333 24.7649 56.395C23.8666 56.045 22.8632 55.87 21.7549 55.87C20.7632 55.87 19.8882 56.01 19.1299 56.29C18.3716 56.5583 17.7299 56.9492 17.2049 57.4625C16.6916 57.9758 16.3007 58.5942 16.0324 59.3175C15.7641 60.0408 15.6299 60.8517 15.6299 61.75C15.6299 62.975 15.8749 64.025 16.3649 64.9C16.8549 65.775 17.5607 66.4517 18.4824 66.93C19.4041 67.3967 20.5182 67.63 21.8249 67.63C22.8282 67.63 23.8432 67.4725 24.8699 67.1575C25.9082 66.8425 26.8999 66.3467 27.8449 65.67L31.0649 71.585C29.9682 72.425 28.6091 73.125 26.9874 73.685C25.3657 74.245 23.4349 74.525 21.1949 74.525ZM46.244 74.525C44.3306 74.525 42.569 74.2042 40.959 73.5625C39.349 72.9092 37.949 72.005 36.759 70.85C35.5806 69.695 34.6648 68.3417 34.0115 66.79C33.3698 65.2383 33.049 63.5583 33.049 61.75C33.049 59.93 33.3698 58.2442 34.0115 56.6925C34.6648 55.1408 35.5806 53.7875 36.759 52.6325C37.949 51.4775 39.349 50.5792 40.959 49.9375C42.569 49.2958 44.3306 48.975 46.244 48.975C48.1573 48.975 49.9131 49.3017 51.5115 49.955C53.1215 50.6083 54.5156 51.5183 55.694 52.685C56.884 53.8517 57.8056 55.2108 58.459 56.7625C59.1123 58.3025 59.439 59.965 59.439 61.75C59.439 63.5583 59.1123 65.2383 58.459 66.79C57.8056 68.3417 56.884 69.695 55.694 70.85C54.5156 72.005 53.1215 72.9092 51.5115 73.5625C49.9131 74.2042 48.1573 74.525 46.244 74.525ZM46.244 67.91C47.0956 67.91 47.8715 67.77 48.5715 67.49C49.2831 67.1983 49.8956 66.7842 50.409 66.2475C50.9223 65.7108 51.319 65.0633 51.599 64.305C51.879 63.5467 52.019 62.695 52.019 61.75C52.019 60.49 51.774 59.3992 51.284 58.4775C50.794 57.5558 50.1115 56.8442 49.2365 56.3425C48.3731 55.8408 47.3756 55.59 46.244 55.59C45.3923 55.59 44.6106 55.7358 43.899 56.0275C43.199 56.3075 42.5923 56.7158 42.079 57.2525C41.5656 57.7892 41.169 58.4367 40.889 59.195C40.609 59.9533 40.469 60.805 40.469 61.75C40.469 63.01 40.714 64.1008 41.204 65.0225C41.694 65.9442 42.3706 66.6558 43.234 67.1575C44.109 67.6592 45.1123 67.91 46.244 67.91ZM64.3491 74V49.5H71.1391L79.9941 64.41L77.1591 64.445L85.4891 49.5H92.2791V74H85.4541L85.5941 58.39L86.8191 58.845L80.5891 69.835H76.0391L69.4591 58.845L70.6841 58.39L70.8241 74H64.3491Z" fill="#3785C4"/>
<path d="M59 17L60.1716 15.8284C61.9826 14.0174 64.4388 13 67 13C69.5612 13 72.0174 14.0174 73.8284 15.8284L75 17L73.5858 18.4142L72.4142 17.2426C70.9783 15.8067 69.0307 15 67 15C64.9693 15 63.0217 15.8067 61.5858 17.2426L60.4142 18.4142L59 17Z" fill="#66ACE2"/>
<path d="M63.2426 21.2426L61.8284 19.8284L62.9999 18.6568C64.0608 17.596 65.4996 17 66.9999 17C68.5002 17 69.939 17.596 70.9999 18.6569L72.1715 19.8284L70.7573 21.2426L69.5857 20.0711C68.8999 19.3853 67.9698 19 66.9999 19C66.0301 19 65.0999 19.3853 64.4141 20.0711L63.2426 21.2426Z" fill="#66ACE2"/>
<path d="M66.9999 25L64.6567 22.6569L65.8283 21.4853C66.139 21.1746 66.5605 21 66.9999 21C67.4393 21 67.8607 21.1746 68.1715 21.4853L69.343 22.6569L66.9999 25Z" fill="#66ACE2"/>
</svg>
